{
	"asset":{
		"generator":"Khronos glTF Blender I/O v4.3.47",
		"version":"2.0"
	},
	"scene":0,
	"scenes":[
		{
			"name":"Scene",
			"nodes":[
				4
			]
		}
	],
	"nodes":[
		{
			"mesh":0,
			"name":"GN Instance",
			"translation":[
				1.3009059429168701,
				1,
				-1.3147392272949219
			]
		},
		{
			"mesh":0,
			"name":"GN Instance",
			"translation":[
				-3.18141770362854,
				1,
				-1.3147392272949219
			]
		},
		{
			"mesh":0,
			"name":"GN Instance",
			"translation":[
				-3.18141770362854,
				1,
				0.75
			]
		},
		{
			"mesh":0,
			"name":"GN Instance",
			"translation":[
				1.3009059429168701,
				1,
				0.75
			]
		},
		{
			"children":[
				0,
				1,
				2,
				3
			],
			"mesh":1,
			"name":"Cube"
		}
	],
	"materials":[
		{
			"doubleSided":true,
			"name":"Material",
			"pbrMetallicRoughness":{
				"baseColorFactor":[
					0.800000011920929,
					0.800000011920929,
					0.800000011920929,
					1
				],
				"metallicFactor":0,
				"roughnessFactor":0.5
			}
		}
	],
	"meshes":[
		{
			"name":"Mesh",
			"primitives":[
				{
					"attributes":{
						"POSITION":0,
						"NORMAL":1
					},
					"indices":2
				}
			]
		},
		{
			"name":"Cube",
			"primitives":[
				{
					"attributes":{
						"POSITION":3,
						"NORMAL":4
					},
					"indices":5,
					"material":0
				}
			]
		}
	],
	"accessors":[
		{
			"bufferView":0,
			"componentType":5126,
			"count":1344,
			"max":[
				0.05000000074505806,
				-0.029999999329447746,
				0.05000000074505806
			],
			"min":[
				-0.05000000074505806,
				-2,
				-0.05000000074505806
			],
			"type":"VEC3"
		},
		{
			"bufferView":1,
			"componentType":5126,
			"count":1344,
			"type":"VEC3"
		},
		{
			"bufferView":2,
			"componentType":5123,
			"count":7668,
			"type":"SCALAR"
		},
		{
			"bufferView":3,
			"componentType":5126,
			"count":1088,
			"max":[
				1.589174509048462,
				1.0299999713897705,
				1.0382685661315918
			],
			"min":[
				-3.469686269760132,
				0.9700000286102295,
				-1.6030077934265137
			],
			"type":"VEC3"
		},
		{
			"bufferView":4,
			"componentType":5126,
			"count":1088,
			"type":"VEC3"
		},
		{
			"bufferView":5,
			"componentType":5123,
			"count":5700,
			"type":"SCALAR"
		}
	],
	"bufferViews":[
		{
			"buffer":0,
			"byteLength":16128,
			"byteOffset":0,
			"target":34962
		},
		{
			"buffer":0,
			"byteLength":16128,
			"byteOffset":16128,
			"target":34962
		},
		{
			"buffer":0,
			"byteLength":15336,
			"byteOffset":32256,
			"target":34963
		},
		{
			"buffer":0,
			"byteLength":13056,
			"byteOffset":47592,
			"target":34962
		},
		{
			"buffer":0,
			"byteLength":13056,
			"byteOffset":60648,
			"target":34962
		},
		{
			"buffer":0,
			"byteLength":11400,
			"byteOffset":73704,
			"target":34963
		}
	],
	"buffers":[
		{
			"byteLength":85104,
			"uri":"table-sceneGraph-mesh-applyModifiers.bin"
		}
	]
}
